HIERARCHY
ROOT Hips
{
	OFFSET 0.0000 0.0000 0.0000
	CHANNELS 6 Xposition Yposition Zposition Zrotation Xrotation Yrotation
	JOINT Spine1
	{
		OFFSET -0.0137 5.0038 -0.0537
		CHANNELS 3 Zrotation Xrotation Yrotation
		JOINT Spine2
		{
			OFFSET -0.0000 7.1253 -0.0298
			CHANNELS 3 Zrotation Xrotation Yrotation
			JOINT Chest
			{
				OFFSET -0.0000 7.5501 -0.8160
				CHANNELS 3 Zrotation Xrotation Yrotation
				JOINT Neck1
				{
					OFFSET -0.1817 26.3113 -0.5533
					CHANNELS 3 Zrotation Xrotation Yrotation
					JOINT Neck2
					{
						OFFSET -0.0000 7.7094 2.3026
						CHANNELS 3 Zrotation Xrotation Yrotation
						JOINT Head
						{
							OFFSET -0.0000 6.1289 1.9537
							CHANNELS 3 Zrotation Xrotation Yrotation
							JOINT Jaw
							{
								OFFSET 0.0026 0.4756 3.0949
								CHANNELS 3 Zrotation Xrotation Yrotation
								End Site
								{
									OFFSET 0.0 1.0 0.0
								}
							}
							JOINT LeftEye
							{
								OFFSET 3.2064 5.3802 7.5869
								CHANNELS 3 Zrotation Xrotation Yrotation
								End Site
								{
									OFFSET 0.0 1.0 0.0
								}
							}
							JOINT RightEye
							{
								OFFSET -3.2224 5.3619 7.5582
								CHANNELS 3 Zrotation Xrotation Yrotation
								End Site
								{
									OFFSET 0.0 1.0 0.0
								}
							}
						}
					}
				}
				JOINT LeftShoulder
				{
					OFFSET 1.6217 23.2372 5.1134
					CHANNELS 3 Zrotation Xrotation Yrotation
					JOINT LeftArm
					{
						OFFSET 14.9198 0.0000 -5.5023
						CHANNELS 3 Zrotation Xrotation Yrotation
						JOINT LeftForeArm
						{
							OFFSET 28.7393 0.0000 -0.0026
							CHANNELS 3 Zrotation Xrotation Yrotation
							JOINT LeftHand
							{
								OFFSET 27.0940 -0.0000 0.0026
								CHANNELS 3 Zrotation Xrotation Yrotation
								JOINT LeftHandThumbEnd
								{
									OFFSET 12.2686 -3.2202 4.8331
									CHANNELS 3 Zrotation Xrotation Yrotation
									End Site
									{
										OFFSET 0.0 1.0 0.0
									}
								}
								JOINT LeftHandMiddleEnd
								{
									OFFSET 19.0120 -0.3129 -0.0340
									CHANNELS 3 Zrotation Xrotation Yrotation
									End Site
									{
										OFFSET 0.0 1.0 0.0
									}
								}
							}
						}
					}
				}
				JOINT RightShoulder
				{
					OFFSET -1.3801 23.1803 5.2142
					CHANNELS 3 Zrotation Xrotation Yrotation
					JOINT RightArm
					{
						OFFSET -15.0372 0.0000 -5.5456
						CHANNELS 3 Zrotation Xrotation Yrotation
						JOINT RightForeArm
						{
							OFFSET -28.7366 0.0000 -0.0026
							CHANNELS 3 Zrotation Xrotation Yrotation
							JOINT RightHand
							{
								OFFSET -27.1336 -0.0000 0.0026
								CHANNELS 3 Zrotation Xrotation Yrotation
								JOINT RightHandThumbEnd
								{
									OFFSET -12.2642 -3.2115 4.8040
									CHANNELS 3 Zrotation Xrotation Yrotation
									End Site
									{
										OFFSET 0.0 1.0 0.0
									}
								}
								JOINT RightHandMiddleEnd
								{
									OFFSET -19.0006 -0.3066 -0.0316
									CHANNELS 3 Zrotation Xrotation Yrotation
									End Site
									{
										OFFSET 0.0 1.0 0.0
									}
								}
							}
						}
					}
				}
			}
		}
	}
	JOINT LeftLeg
	{
		OFFSET 10.0432 -8.4345 2.5957
		CHANNELS 3 Zrotation Xrotation Yrotation
		JOINT LeftShin
		{
			OFFSET -0.0000 -43.2218 -0.8029
			CHANNELS 3 Zrotation Xrotation Yrotation
			JOINT LeftFoot
			{
				OFFSET 0.0000 -42.1551 -3.4815
				CHANNELS 3 Zrotation Xrotation Yrotation
				JOINT LeftToeBase
				{
					OFFSET 0.0000 -5.0595 13.2315
					CHANNELS 3 Zrotation Xrotation Yrotation
					End Site
					{
						OFFSET 0.0 1.0 0.0
					}
				}
			}
		}
	}
	JOINT RightLeg
	{
		OFFSET -10.0473 -8.2953 2.6203
		CHANNELS 3 Zrotation Xrotation Yrotation
		JOINT RightShin
		{
			OFFSET 0.0000 -43.3622 -0.8056
			CHANNELS 3 Zrotation Xrotation Yrotation
			JOINT RightFoot
			{
				OFFSET 0.0000 -42.1174 -3.4784
				CHANNELS 3 Zrotation Xrotation Yrotation
				JOINT RightToeBase
				{
					OFFSET -0.0000 -5.0796 13.2842
					CHANNELS 3 Zrotation Xrotation Yrotation
					End Site
					{
						OFFSET 0.0 1.0 0.0
					}
				}
			}
		}
	}
}
MOTION
Frames: 8
Frame Time: 0.033333
-42.9742 95.9015 1020.8838 -2.6087 -4.7810 0.3788 2.4645 0.2960 1.0539 -0.0182 -4.5741 2.2162 0.9811 10.8620 -0.0578 3.3561 2.6045 1.1676 -1.2708 -3.5944 -2.7935 -1.7934 -17.0985 -3.3263 0.0236 0.0842 0.0894 0.6115 -10.4086 -3.7213 -0.5793 -10.4797 3.8928 -15.4605 16.6090 -2.0830 -58.2077 16.2473 -5.5394 0.0711 -0.3343 -112.7411 0.5549 -0.0635 -3.9059 -15.4211 10.8580 15.4148 -60.7047 1.5263 2.1946 16.6495 14.9975 11.9794 61.3804 7.6266 -4.5744 0.8744 0.4095 129.2174 -3.9315 -6.6824 16.6704 14.9526 7.4078 -16.2799 50.7079 -2.8875 -5.2272 4.9671 -34.2530 -7.4848 0.2000 60.0748 0.0171 0.2414 -9.5761 10.7812 1.7756 -5.4320 -2.0797 7.0131 4.6929 -3.3593 -0.2123 31.0117 -0.1705 -4.5649 -15.0743 2.9051 -1.5074 -8.5355 1.1690
-43.3012 97.9147 1031.8923 -0.7314 -4.7504 1.4951 1.7643 -0.6201 0.8703 -0.2153 -4.9442 2.8759 -0.2231 10.5537 0.9532 3.3840 3.8011 1.0819 -1.4665 -3.5586 -3.4551 -0.7048 -15.9000 -4.4456 0.0452 0.0957 0.1382 0.6490 -10.5290 -3.7105 -0.5718 -10.5966 3.9704 -14.3964 16.9557 -0.5587 -57.6593 19.1582 -1.6961 -0.0002 -0.5647 -114.2292 1.4264 -3.2000 -4.8003 -15.7018 10.8995 15.7605 -60.4507 1.4895 2.3727 15.1352 15.2193 11.8002 63.3279 9.0759 -3.8488 0.4583 0.5920 131.3999 -4.1628 -7.4941 16.8401 15.0258 7.4493 -16.3858 50.9308 -2.8950 -5.2968 0.9512 -30.9079 -4.9835 0.2427 36.6021 0.2532 -2.5660 -8.7531 8.9122 1.7682 -4.4854 -2.1556 4.3929 12.3155 -3.8601 -0.1863 26.7373 -0.3486 -3.7003 -1.1145 3.1879 -1.7088 -20.6605 1.5441
-43.5993 99.1929 1042.5057 -0.6896 -4.8959 2.1853 1.9142 -1.4849 0.4865 -0.2303 -5.2267 3.0492 -0.5687 10.2199 1.8779 3.4645 4.7193 0.9306 -1.6456 -3.4865 -3.6543 -0.1007 -14.6969 -4.6680 0.0428 0.1370 0.1294 0.6444 -10.6347 -3.7662 -0.5728 -10.6532 3.9992 -12.6033 17.6213 0.5169 -58.4736 20.8915 1.1510 -0.3580 -0.3935 -115.4270 1.7114 -5.2395 -4.6989 -15.7310 10.7289 15.7442 -59.8942 1.3818 2.3539 13.4154 15.4199 11.4729 65.0581 10.8028 -2.4070 -0.0518 0.4401 131.7754 -3.5034 -7.7927 16.1287 14.9451 7.4511 -16.3087 50.9841 -3.1127 -5.1300 -0.5210 -26.2653 -3.4643 -0.1323 15.2948 -0.0185 -7.4770 -7.7123 6.0066 1.5450 -4.6904 -2.3929 3.7891 16.5146 -4.0953 -0.1176 26.9618 -0.3671 -0.4975 15.8068 3.3258 -1.6645 -22.8509 1.4286
-43.9156 99.3311 1052.8845 -1.5327 -5.1352 2.4254 2.3841 -1.6274 0.2335 -0.1073 -5.3366 3.0230 -0.5149 9.9180 2.1012 3.7382 4.8100 0.8762 -1.7347 -3.5861 -3.8893 0.0584 -14.2321 -4.4874 0.0396 0.1285 0.1074 0.6458 -10.6082 -3.7870 -0.5809 -10.6023 3.9772 -11.5492 17.8544 0.8451 -59.4597 21.7330 3.2105 -0.7328 -0.1285 -116.7841 1.3426 -6.8548 -4.2148 -15.4077 10.6655 15.6111 -59.4370 1.4081 2.3445 12.4829 15.4623 11.5652 65.5647 11.4023 -2.2133 0.3889 0.2302 131.2856 -2.8851 -8.4271 14.7619 14.6507 7.3740 -16.3443 50.6211 -3.3630 -5.1846 -0.4737 -24.3564 -3.5084 -0.1051 6.1374 -0.0280 -9.2931 -6.9855 5.1483 1.3914 -5.1047 -2.4659 4.6111 16.1312 -3.3695 -0.2128 33.8251 -0.2745 4.0677 26.5047 2.0725 -1.2129 -9.6670 1.0281
-44.0876 98.3784 1063.3319 -1.6978 -5.7616 2.3946 2.4436 -1.0183 0.2101 -0.1264 -5.2729 2.8321 -0.4957 9.8205 1.5777 3.8203 4.6485 1.0860 -1.7229 -3.6597 -4.3841 0.0673 -14.6164 -4.1284 0.0478 0.1228 0.1494 0.6652 -10.5660 -3.7303 -0.5851 -10.5602 3.9994 -11.7898 17.7583 0.4663 -60.0009 21.1503 4.1659 -0.6270 0.0827 -117.5232 1.1146 -7.1546 -3.8836 -15.1514 10.8857 15.8139 -59.3235 1.5894 2.4950 12.2066 15.5345 11.6634 65.3921 10.9924 -2.5948 1.3667 -0.0395 129.8184 -2.6754 -8.6893 13.8436 14.7440 7.5003 -16.5750 50.5252 -3.3788 -5.4893 -1.1571 -23.1684 -3.0428 0.0049 7.5192 0.0232 -9.5800 -8.6060 5.1617 1.4299 -5.3274 -2.4228 3.9060 12.6356 -4.1274 -0.3007 46.4046 -0.3366 4.0563 21.8245 -1.3338 -1.2090 -5.1912 1.0004
-44.2955 96.5083 1074.1673 -0.3791 -6.2080 2.0813 1.3416 -0.5530 0.4109 -0.2475 -5.1029 2.2649 -0.4165 9.9024 0.8153 3.7235 4.5434 1.2867 -1.7240 -3.5677 -4.1926 -0.1973 -14.7935 -3.9474 0.0416 0.1542 0.1303 0.6134 -10.6134 -3.7518 -0.5439 -10.6167 3.9862 -13.5797 16.7996 -0.9211 -59.6014 19.1838 4.0761 -0.1387 -0.0397 -116.2979 1.5156 -5.4437 -3.6666 -14.9547 11.0933 16.0890 -59.4010 1.6991 2.6674 13.4964 15.5547 11.4872 63.7278 10.2254 -3.2845 1.9728 -0.3384 126.9131 -2.7902 -9.5530 14.3422 15.0194 7.6333 -16.6136 50.6309 -3.1214 -5.5169 -3.6529 -21.9779 -1.0241 -0.0652 14.0261 0.0266 -9.4646 -7.6246 3.0481 1.5663 -5.9451 -2.4416 0.2606 6.3759 -6.3760 -0.0636 60.1390 -0.2141 1.6712 12.6602 -4.9400 -1.3244 -4.5160 1.0134
-44.2006 94.3787 1084.0490 3.0165 -6.4797 1.9435 -0.8639 -0.0665 0.0887 -0.6319 -4.7496 1.7777 -1.4414 10.3151 -0.2041 4.2222 4.0474 1.1136 -1.6126 -3.7071 -3.6514 -0.7954 -15.5705 -3.9674 0.0532 0.1281 0.0881 0.6066 -10.5902 -3.7951 -0.5185 -10.6414 3.9438 -16.4410 15.2323 -3.0617 -57.7983 14.9186 3.4089 0.3151 -0.4607 -112.8521 3.0934 -2.6254 -3.6374 -15.0111 10.9745 15.9788 -59.5120 1.7058 2.4547 17.1540 15.1481 11.2436 60.3137 10.0124 -3.6821 1.1471 -0.5286 122.4788 -3.0849 -9.5734 15.4110 15.1686 7.6725 -16.4874 50.2259 -2.9765 -5.3324 -8.7393 -23.6578 0.6300 -0.0069 26.3724 0.3396 1.5914 1.1879 1.4667 1.6965 -1.6998 -2.0449 -6.0933 -2.2481 -7.8309 -0.1229 71.6895 -0.4548 -0.0368 2.8014 -5.8205 -1.3452 -4.4039 0.9949
-43.9433 92.8305 1091.8283 4.6849 -7.8191 1.4407 -1.0397 0.8478 -0.3176 -0.8925 -4.2622 1.3328 -2.8420 11.2961 -0.7632 4.6248 3.7593 0.9025 -1.6869 -3.6508 -3.6450 -1.0642 -17.7177 -3.4230 0.0370 0.1441 0.0372 0.6407 -10.6017 -3.8565 -0.5839 -10.6423 3.9146 -17.0622 15.4189 -4.8044 -57.4003 6.8187 -1.0250 0.4053 -1.0522 -106.7060 6.1757 2.9505 -3.0585 -15.0024 11.2112 15.8591 -59.5247 1.7922 2.1926 18.5703 15.7350 10.3191 59.9243 9.1341 -5.3740 1.5381 -0.4213 116.4656 -4.6876 -7.3214 15.7490 15.1381 7.7096 -16.2620 50.0799 -3.0188 -5.0311 -11.4565 -23.0388 0.7082 0.3312 39.7154 0.4151 4.4536 -8.0503 3.1823 1.6101 0.9731 -2.0664 -9.2596 -10.3767 -5.9819 0.0447 78.0435 -0.2309 -0.8455 -4.2506 -4.4435 -1.4160 -4.5006 0.9648
